<svg xmlns="http://www.w3.org/2000/svg" width="960" height="360" viewBox="0 0 960 360">
  <defs>
    <style>
      .bg{fill:#ffffff}
      .card{fill:#f8fafc;stroke:#e5e7eb;stroke-width:2}
      .title{font:700 18px -apple-system,BlinkMacSystemFont,"Segoe UI",Roboto,Helvetica,Arial;fill:#111827}
      .muted{font:500 12px -apple-system,BlinkMacSystemFont,"Segoe UI",Roboto,Helvetica,Arial;fill:#6b7280}
      .cell{fill:#ffffff;stroke:#e5e7eb;stroke-width:2}
      .head{fill:#eff6ff;stroke:#bfdbfe;stroke-width:2}
      .text{font:700 12px -apple-system,BlinkMacSystemFont,"Segoe UI",Roboto,Helvetica,Arial;fill:#111827}
      .text2{font:600 12px -apple-system,BlinkMacSystemFont,"Segoe UI",Roboto,Helvetica,Arial;fill:#374151}
    </style>
  </defs>
  <rect class="bg" x="0" y="0" width="960" height="360"/>
  <text class="title" x="40" y="56">Action–course mapping (example)</text>
  <text class="muted" x="40" y="80">A compact table that reveals entry points, permissions, validations, and state transitions</text>

  <rect class="card" x="40" y="104" width="880" height="216" rx="16"/>

  <rect class="head" x="80" y="140" width="170" height="40" rx="10"/>
  <text class="text" x="165" y="166" text-anchor="middle">Object</text>
  <rect class="head" x="260" y="140" width="220" height="40" rx="10"/>
  <text class="text" x="370" y="166" text-anchor="middle">Action</text>
  <rect class="head" x="490" y="140" width="190" height="40" rx="10"/>
  <text class="text" x="585" y="166" text-anchor="middle">State change</text>
  <rect class="head" x="690" y="140" width="210" height="40" rx="10"/>
  <text class="text" x="795" y="166" text-anchor="middle">Spec focus</text>

  <rect class="cell" x="80" y="190" width="170" height="38" rx="10"/>
  <text class="text2" x="165" y="214" text-anchor="middle">Course</text>
  <rect class="cell" x="260" y="190" width="220" height="38" rx="10"/>
  <text class="text2" x="370" y="214" text-anchor="middle">Browse / Search</text>
  <rect class="cell" x="490" y="190" width="190" height="38" rx="10"/>
  <text class="text2" x="585" y="214" text-anchor="middle">None</text>
  <rect class="cell" x="690" y="190" width="210" height="38" rx="10"/>
  <text class="text2" x="795" y="214" text-anchor="middle">Filters / sorting / visibility</text>

  <rect class="cell" x="80" y="234" width="170" height="38" rx="10"/>
  <text class="text2" x="165" y="258" text-anchor="middle">Course</text>
  <rect class="cell" x="260" y="234" width="220" height="38" rx="10"/>
  <text class="text2" x="370" y="258" text-anchor="middle">Enroll / Purchase</text>
  <rect class="cell" x="490" y="234" width="190" height="38" rx="10"/>
  <text class="text2" x="585" y="258" text-anchor="middle">Enrolled</text>
  <rect class="cell" x="690" y="234" width="210" height="38" rx="10"/>
  <text class="text2" x="795" y="258" text-anchor="middle">Payment / idempotency / access</text>

  <rect class="cell" x="80" y="278" width="170" height="38" rx="10"/>
  <text class="text2" x="165" y="302" text-anchor="middle">Lesson</text>
  <rect class="cell" x="260" y="278" width="220" height="38" rx="10"/>
  <text class="text2" x="370" y="302" text-anchor="middle">Play / Complete</text>
  <rect class="cell" x="490" y="278" width="190" height="38" rx="10"/>
  <text class="text2" x="585" y="302" text-anchor="middle">Progress updated</text>
  <rect class="cell" x="690" y="278" width="210" height="38" rx="10"/>
  <text class="text2" x="795" y="302" text-anchor="middle">Criteria / retries / offline sync</text>
</svg>
