<?xml version="1.0" encoding="UTF-8"?>
<svg xmlns="http://www.w3.org/2000/svg" width="920" height="640" viewBox="0 0 920 640">
  <defs>
    <style>
      .bg { fill: #ffffff; }
      .box { fill: none; stroke: rgba(15, 23, 42, 0.65); stroke-width: 2; rx: 6; }
      .text { font: 700 20px -apple-system, BlinkMacSystemFont, "Segoe UI", Arial, "Hiragino Kaku Gothic ProN", "Noto Sans JP", "Yu Gothic", sans-serif; fill: rgba(15, 23, 42, 0.92); }
      .arrow { stroke: rgba(15, 23, 42, 1); stroke-width: 2.4; fill: none; }
      .brace { stroke: rgba(15, 23, 42, 0.55); stroke-width: 2.2; fill: none; }
    </style>
    <marker id="arrowHead" viewBox="0 0 10 10" refX="9" refY="5" markerWidth="8" markerHeight="8" orient="auto-start-reverse">
      <path d="M 0 0 L 10 5 L 0 10 z" fill="rgba(15, 23, 42, 1)"/>
    </marker>
  </defs>

  <rect class="bg" x="0" y="0" width="920" height="640"/>

  <rect class="box" x="380" y="60" width="160" height="66"/>
  <text class="text" x="460" y="102" text-anchor="middle">経営層</text>

  <rect class="box" x="380" y="170" width="160" height="66"/>
  <text class="text" x="460" y="212" text-anchor="middle">中間管理職</text>

  <rect class="box" x="380" y="280" width="160" height="66"/>
  <text class="text" x="460" y="322" text-anchor="middle">現場管理</text>

  <rect class="box" x="380" y="400" width="160" height="66"/>
  <text class="text" x="460" y="442" text-anchor="middle">利用者</text>

  <path class="arrow" marker-end="url(#arrowHead)" d="M 460 126 L 460 170"/>
  <path class="arrow" marker-end="url(#arrowHead)" d="M 460 236 L 460 280"/>
  <path class="arrow" marker-end="url(#arrowHead)" d="M 460 346 L 460 400"/>

  <rect class="box" x="650" y="130" width="190" height="66"/>
  <text class="text" x="745" y="172" text-anchor="middle">コンプライアンス部門</text>

  <rect class="box" x="650" y="230" width="190" height="66"/>
  <text class="text" x="745" y="272" text-anchor="middle">顧問</text>

  <path class="brace" d="M 620 162 L 650 162"/>
  <path class="brace" d="M 620 262 L 650 262"/>
  <path class="brace" d="M 620 162 L 620 262"/>
  <path class="arrow" marker-end="url(#arrowHead)" d="M 620 212 L 540 212"/>

  <rect class="box" x="650" y="360" width="190" height="66"/>
  <text class="text" x="745" y="402" text-anchor="middle">他部門</text>

  <rect class="box" x="650" y="460" width="190" height="66"/>
  <text class="text" x="745" y="502" text-anchor="middle">第三者企業</text>

  <path class="brace" d="M 620 392 L 650 392"/>
  <path class="brace" d="M 620 492 L 650 492"/>
  <path class="brace" d="M 620 392 L 620 492"/>
  <path class="arrow" marker-end="url(#arrowHead)" d="M 620 442 L 540 442"/>

  <rect class="box" x="70" y="350" width="220" height="66"/>
  <text class="text" x="180" y="392" text-anchor="middle">要件伝達者</text>
  <path class="arrow" marker-end="url(#arrowHead)" d="M 380 433 L 290 383"/>

  <rect class="box" x="70" y="450" width="220" height="66"/>
  <text class="text" x="180" y="492" text-anchor="middle">顧客</text>
  <path class="arrow" marker-end="url(#arrowHead)" d="M 380 433 L 290 483"/>
</svg>
