<svg xmlns="http://www.w3.org/2000/svg" width="960" height="360" viewBox="0 0 960 360">
  <defs>
    <style>
      .bg{fill:#ffffff}
      .card{fill:#f8fafc;stroke:#e5e7eb;stroke-width:2}
      .title{font:700 18px -apple-system,BlinkMacSystemFont,"Segoe UI",Roboto,Helvetica,Arial;fill:#111827}
      .muted{font:500 12px -apple-system,BlinkMacSystemFont,"Segoe UI",Roboto,Helvetica,Arial;fill:#6b7280}
      .cell{fill:#ffffff;stroke:#e5e7eb;stroke-width:2}
      .head{fill:#eff6ff;stroke:#bfdbfe;stroke-width:2}
      .text{font:700 12px -apple-system,BlinkMacSystemFont,"Segoe UI",Roboto,Helvetica,Arial;fill:#111827}
      .text2{font:600 12px -apple-system,BlinkMacSystemFont,"Segoe UI",Roboto,Helvetica,Arial;fill:#374151}
    </style>
  </defs>
  <rect class="bg" x="0" y="0" width="960" height="360"/>
  <text class="title" x="40" y="56">行動 - コース対応表（例）</text>
  <text class="muted" x="40" y="80">入口、権限、バリデーション、状態遷移の抜けを早く見つけるための簡易表</text>

  <rect class="card" x="40" y="104" width="880" height="216" rx="16"/>

  <rect class="head" x="80" y="140" width="170" height="40" rx="10"/>
  <text class="text" x="165" y="166" text-anchor="middle">対象</text>
  <rect class="head" x="260" y="140" width="220" height="40" rx="10"/>
  <text class="text" x="370" y="166" text-anchor="middle">行動</text>
  <rect class="head" x="490" y="140" width="190" height="40" rx="10"/>
  <text class="text" x="585" y="166" text-anchor="middle">状態変化</text>
  <rect class="head" x="690" y="140" width="210" height="40" rx="10"/>
  <text class="text" x="795" y="166" text-anchor="middle">重点仕様</text>

  <rect class="cell" x="80" y="190" width="170" height="38" rx="10"/>
  <text class="text2" x="165" y="214" text-anchor="middle">コース</text>
  <rect class="cell" x="260" y="190" width="220" height="38" rx="10"/>
  <text class="text2" x="370" y="214" text-anchor="middle">閲覧 / 検索</text>
  <rect class="cell" x="490" y="190" width="190" height="38" rx="10"/>
  <text class="text2" x="585" y="214" text-anchor="middle">なし</text>
  <rect class="cell" x="690" y="190" width="210" height="38" rx="10"/>
  <text class="text2" x="795" y="214" text-anchor="middle">フィルタ / 並び替え / 可視性</text>

  <rect class="cell" x="80" y="234" width="170" height="38" rx="10"/>
  <text class="text2" x="165" y="258" text-anchor="middle">コース</text>
  <rect class="cell" x="260" y="234" width="220" height="38" rx="10"/>
  <text class="text2" x="370" y="258" text-anchor="middle">購入 / 受講登録</text>
  <rect class="cell" x="490" y="234" width="190" height="38" rx="10"/>
  <text class="text2" x="585" y="258" text-anchor="middle">受講中</text>
  <rect class="cell" x="690" y="234" width="210" height="38" rx="10"/>
  <text class="text2" x="795" y="258" text-anchor="middle">決済 / 冪等 / アクセス制御</text>

  <rect class="cell" x="80" y="278" width="170" height="38" rx="10"/>
  <text class="text2" x="165" y="302" text-anchor="middle">レッスン</text>
  <rect class="cell" x="260" y="278" width="220" height="38" rx="10"/>
  <text class="text2" x="370" y="302" text-anchor="middle">再生 / 完了</text>
  <rect class="cell" x="490" y="278" width="190" height="38" rx="10"/>
  <text class="text2" x="585" y="302" text-anchor="middle">進捗更新</text>
  <rect class="cell" x="690" y="278" width="210" height="38" rx="10"/>
  <text class="text2" x="795" y="302" text-anchor="middle">判定 / 再試行 / オフライン同期</text>
</svg>
