<svg xmlns="http://www.w3.org/2000/svg" width="960" height="360" viewBox="0 0 960 360">
  <defs>
    <style>
      .bg{fill:#ffffff}
      .card{fill:#f8fafc;stroke:#e5e7eb;stroke-width:2}
      .title{font:700 18px -apple-system,BlinkMacSystemFont,"Segoe UI",Roboto,Helvetica,Arial;fill:#111827}
      .text{font:500 13px -apple-system,BlinkMacSystemFont,"Segoe UI",Roboto,Helvetica,Arial;fill:#374151}
      .muted{font:500 12px -apple-system,BlinkMacSystemFont,"Segoe UI",Roboto,Helvetica,Arial;fill:#6b7280}
      .pill{fill:#eff6ff;stroke:#bfdbfe;stroke-width:2}
      .pillText{font:700 12px -apple-system,BlinkMacSystemFont,"Segoe UI",Roboto,Helvetica,Arial;fill:#1d4ed8}
      .line{stroke:#2563eb;stroke-width:3;fill:none;stroke-linecap:round;stroke-linejoin:round}
    </style>
    <marker id="arrow" viewBox="0 0 10 10" refX="9" refY="5" markerWidth="7" markerHeight="7" orient="auto">
      <path d="M 0 0 L 10 5 L 0 10 z" fill="#2563eb"/>
    </marker>
  </defs>
  <rect class="bg" x="0" y="0" width="960" height="360"/>
  <rect class="card" x="140" y="64" width="680" height="232" rx="16"/>
  <text class="title" x="160" y="98">ライフサイクル思考</text>
  <text class="muted" x="160" y="122">生成から終了まで、状態・遷移・権限・証跡を一貫して定義する</text>

  <rect class="pill" x="190" y="170" width="110" height="30" rx="15"/>
  <text class="pillText" x="245" y="190" text-anchor="middle">下書き</text>
  <rect class="pill" x="320" y="170" width="110" height="30" rx="15"/>
  <text class="pillText" x="375" y="190" text-anchor="middle">提出済み</text>
  <rect class="pill" x="450" y="170" width="110" height="30" rx="15"/>
  <text class="pillText" x="505" y="190" text-anchor="middle">処理中</text>
  <rect class="pill" x="580" y="170" width="110" height="30" rx="15"/>
  <text class="pillText" x="635" y="190" text-anchor="middle">完了</text>
  <rect class="pill" x="710" y="170" width="110" height="30" rx="15"/>
  <text class="pillText" x="765" y="190" text-anchor="middle">アーカイブ</text>

  <path class="line" marker-end="url(#arrow)" d="M305 185 L315 185"/>
  <path class="line" marker-end="url(#arrow)" d="M435 185 L445 185"/>
  <path class="line" marker-end="url(#arrow)" d="M565 185 L575 185"/>
  <path class="line" marker-end="url(#arrow)" d="M695 185 L705 185"/>

  <path class="line" marker-end="url(#arrow)" d="M770 212 C760 252, 600 280, 480 280 C360 280, 220 252, 215 212"/>

  <text class="text" x="190" y="230">各状態で：操作可否、編集範囲、失敗時の扱い、ログと通知を明確化</text>
  <text class="muted" x="480" y="268" text-anchor="middle">終端＝終了ではない：取下げ/無効化/中止/復旧/再試行もライフサイクル</text>
  <text class="muted" x="480" y="336" text-anchor="middle">ライフサイクルが明確だと：状態機械、権限、口径、テストが素早く整合する</text>
</svg>
