<?xml version="1.0" encoding="UTF-8"?>
<svg xmlns="http://www.w3.org/2000/svg" width="2100" height="768" viewBox="0 0 2100 768">
  <defs>
    <style>
      .bg { fill: #ffffff; }
      .main { stroke: #0b6bff; stroke-width: 10; stroke-linecap: round; }
      .node { fill: #0b6bff; stroke: none; }
      .branch { stroke: rgba(15, 23, 42, 0.75); stroke-width: 4; fill: none; stroke-linecap: round; stroke-linejoin: round; }
      .title { font: 700 30px -apple-system, BlinkMacSystemFont, "Segoe UI", Arial, sans-serif; fill: rgba(15, 23, 42, 0.9); }
      .labelText { font: 700 16px -apple-system, BlinkMacSystemFont, "Segoe UI", Arial, sans-serif; fill: rgba(15, 23, 42, 0.9); }
      .nodeText { font: 700 14px -apple-system, BlinkMacSystemFont, "Segoe UI", Arial, sans-serif; fill: rgba(15, 23, 42, 0.85); }
      .laneLine { stroke: rgba(15, 23, 42, 0.14); stroke-width: 2; }
      .laneText { font: 800 22px -apple-system, BlinkMacSystemFont, "Segoe UI", Arial, sans-serif; fill: rgba(15, 23, 42, 0.75); }
      .avatarBg { fill: rgba(11, 107, 255, 0.12); stroke: rgba(11, 107, 255, 0.55); stroke-width: 2; }
      .avatarFg { stroke: rgba(11, 107, 255, 0.85); stroke-width: 2; fill: none; stroke-linecap: round; stroke-linejoin: round; }
    </style>
    <marker id="arrowHeadBlue" viewBox="0 0 10 10" refX="9" refY="5" markerWidth="7" markerHeight="7" orient="auto-start-reverse">
      <path d="M 0 3 L 10 5 L 0 7 z" fill="#0b6bff"/>
    </marker>
  </defs>

  <rect class="bg" x="0" y="0" width="2100" height="768"/>

  <text class="title" x="72" y="86">Enterprise Fleet Scenarios (Example)</text>

  <line class="laneLine" x1="24" y1="384" x2="2076" y2="384"/>
  <line class="laneLine" x1="24" y1="576" x2="2076" y2="576"/>

  <text class="laneText" x="36" y="226">Requester</text>
  <text class="laneText" x="36" y="496">Dispatcher</text>
  <text class="laneText" x="36" y="686">Driver</text>

  <g transform="translate(44 152) scale(1.35)">
    <circle class="avatarBg" cx="20" cy="20" r="18"/>
    <circle class="avatarFg" cx="20" cy="17" r="6"/>
    <path class="avatarFg" d="M 10 33 C 13 27, 27 27, 30 33"/>
  </g>
  <g transform="translate(44 422) scale(1.35)">
    <circle class="avatarBg" cx="20" cy="20" r="18"/>
    <circle class="avatarFg" cx="20" cy="17" r="6"/>
    <path class="avatarFg" d="M 10 33 C 13 27, 27 27, 30 33"/>
  </g>
  <g transform="translate(44 612) scale(1.35)">
    <circle class="avatarBg" cx="20" cy="20" r="18"/>
    <circle class="avatarFg" cx="20" cy="17" r="6"/>
    <path class="avatarFg" d="M 10 33 C 13 27, 27 27, 30 33"/>
  </g>

  <path class="main" d="M 220 390 L 1912 390"/>
  <path d="M 1908 378 L 1948 390 L 1908 402 Z" fill="#0b6bff"/>

  <circle class="node" cx="400" cy="390" r="14"/>
  <circle class="node" cx="700" cy="390" r="14"/>
  <circle class="node" cx="1120" cy="390" r="14"/>
  <circle class="node" cx="1600" cy="390" r="14"/>

  <text class="nodeText" x="400" y="426" text-anchor="middle">Request</text>
  <text class="nodeText" x="700" y="426" text-anchor="middle">Assign</text>
  <text class="nodeText" x="1120" y="426" text-anchor="middle">Depart</text>
  <text class="nodeText" x="1600" y="426" text-anchor="middle">Arrive</text>

  <path class="branch" d="M 535 390 L 590 230 L 720 230"/>
  <path class="branch" d="M 535 390 L 640 350 L 720 350"/>

  <path class="branch" d="M 865 390 L 920 210 L 1090 210"/>
  <path class="branch" d="M 865 390 L 970 330 L 1090 330"/>

  <path class="branch" d="M 1000 390 L 1050 470 L 1320 470"/>
  <path class="branch" d="M 1000 390 L 1050 510 L 1320 510"/>
  <path class="branch" d="M 1000 390 L 1050 550 L 1320 550"/>

  <path class="branch" d="M 1380 390 L 1480 190 L 1800 190"/>
  <path class="branch" d="M 1380 390 L 1480 470 L 1800 470"/>
  <path class="branch" d="M 1380 390 L 1480 330 L 1800 330"/>
  <path class="branch" d="M 1380 390 L 1480 550 L 1800 550"/>
  <path class="branch" d="M 1380 390 L 1480 510 L 1800 510"/>
  <path class="branch" d="M 1000 390 L 1050 670 L 1320 670"/>

  <text class="labelText" x="615" y="210" text-anchor="middle" dominant-baseline="middle">Change Request</text>
  <text class="labelText" x="640" y="330" text-anchor="middle" dominant-baseline="middle">Cancel Request</text>

  <text class="labelText" x="945" y="190" text-anchor="middle" dominant-baseline="middle">Change time / passengers / origin / destination</text>
  <a href="../../en-US/tools/resource-calendar-model.md" target="_blank">
    <text class="labelText" x="970" y="310" text-anchor="middle" dominant-baseline="middle">Revoke Request</text>
  </a>

  <text class="labelText" x="1185" y="450" text-anchor="middle" dominant-baseline="middle">Replace Vehicle</text>
  <text class="labelText" x="1185" y="490" text-anchor="middle" dominant-baseline="middle">Revoke Assignment</text>
  <text class="labelText" x="1185" y="530" text-anchor="middle" dominant-baseline="middle">Replace Driver</text>

  <text class="labelText" x="1640" y="170" text-anchor="middle" dominant-baseline="middle">Emergency</text>
  <text class="labelText" x="1640" y="450" text-anchor="middle" dominant-baseline="middle">Emergency Stop</text>
  <text class="labelText" x="1640" y="310" text-anchor="middle" dominant-baseline="middle">Conflict Handling</text>
  <text class="labelText" x="1640" y="530" text-anchor="middle" dominant-baseline="middle">Emergency Change</text>
  <text class="labelText" x="1640" y="490" text-anchor="middle" dominant-baseline="middle">Replace Driver</text>
  <text class="labelText" x="1185" y="650" text-anchor="middle" dominant-baseline="middle">Driver Refusal</text>
</svg>
