<?xml version="1.0" encoding="UTF-8"?>
<svg xmlns="http://www.w3.org/2000/svg" width="740" height="3520" viewBox="0 0 740 3520">
  <defs>
    <style>
      .bg { fill: #ffffff; }
      .title { font: 800 22px -apple-system, BlinkMacSystemFont, "Segoe UI", Arial, "PingFang SC", "Hiragino Sans GB", "Noto Sans CJK SC", "Microsoft YaHei", sans-serif; fill: rgba(15, 23, 42, 0.92); }
      .stageTitle { font: 800 20px -apple-system, BlinkMacSystemFont, "Segoe UI", Arial, "PingFang SC", "Hiragino Sans GB", "Noto Sans CJK SC", "Microsoft YaHei", sans-serif; fill: rgba(11, 79, 216, 0.90); }
      .label { font: 700 15px -apple-system, BlinkMacSystemFont, "Segoe UI", Arial, "PingFang SC", "Hiragino Sans GB", "Noto Sans CJK SC", "Microsoft YaHei", sans-serif; fill: rgba(15, 23, 42, 0.9); }
      .stageCard { fill: rgba(11, 116, 209, 0.04); stroke: rgba(11, 116, 209, 0.22); stroke-width: 2; rx: 14; }
      .boxBlue { fill: #0b4fd8; stroke: rgba(11, 79, 216, 0.65); stroke-width: 1; rx: 8; }
      .boxYellow { fill: #f4f1c7; stroke: rgba(244, 241, 199, 0.65); stroke-width: 1; rx: 8; }
      .boxTextBlue { font: 700 14px -apple-system, BlinkMacSystemFont, "Segoe UI", Arial, "PingFang SC", "Hiragino Sans GB", "Noto Sans CJK SC", "Microsoft YaHei", sans-serif; fill: #ffffff; }
      .boxTextYellow { font: 700 14px -apple-system, BlinkMacSystemFont, "Segoe UI", Arial, "PingFang SC", "Hiragino Sans GB", "Noto Sans CJK SC", "Microsoft YaHei", sans-serif; fill: #0b1220; }
      .outBox { fill: rgba(244, 241, 199, 0.98); stroke: rgba(244, 241, 199, 0.65); stroke-width: 1; rx: 10; }
      .outText { font: 800 15px -apple-system, BlinkMacSystemFont, "Segoe UI", Arial, "PingFang SC", "Hiragino Sans GB", "Noto Sans CJK SC", "Microsoft YaHei", sans-serif; fill: #0b1220; }
      .arrowBlue { stroke: rgba(47, 120, 255, 0.75); stroke-width: 4; fill: none; stroke-linecap: round; stroke-linejoin: round; }
    </style>
    <marker id="arrowHeadBlue" viewBox="0 0 10 10" refX="9" refY="5" markerWidth="7" markerHeight="7" orient="auto-start-reverse">
      <path d="M 0 0 L 10 5 L 0 10 z" fill="rgba(47, 120, 255, 0.75)"/>
    </marker>
  </defs>

  <rect class="bg" x="0" y="0" width="740" height="3520"/>

  <text class="title" x="370" y="56" text-anchor="middle">visual-spec 阶段地图（竖向）</text>

  <rect x="300" y="86" width="140" height="84" fill="none" stroke="rgba(15, 23, 42, 0.55)" stroke-width="2" rx="10"/>
  <text class="label" x="370" y="124" text-anchor="middle">原始</text>
  <text class="label" x="370" y="148" text-anchor="middle">需求</text>
  <path class="arrowBlue" marker-end="url(#arrowHeadBlue)" d="M 370 178 L 370 220"/>

  <g transform="translate(0, 220)">
    <rect class="stageCard" x="30" y="0" width="680" height="480" rx="16"/>
    <text class="stageTitle" x="60" y="44">初始分析</text>
    <g transform="translate(-130, 0)">
      <rect class="boxBlue" x="215" y="92" width="120" height="40"/>
      <text class="boxTextBlue" x="275" y="116" text-anchor="middle">背景补全</text>
      <rect class="boxYellow" x="355" y="92" width="140" height="40"/>
      <text class="boxTextYellow" x="425" y="116" text-anchor="middle">需求问答</text>

      <rect class="boxBlue" x="215" y="142" width="120" height="40"/>
      <text class="boxTextBlue" x="275" y="166" text-anchor="middle">干系人识别</text>
      <rect class="boxYellow" x="355" y="142" width="140" height="40"/>
      <text class="boxTextYellow" x="425" y="166" text-anchor="middle">干系人列表</text>

      <rect class="boxBlue" x="215" y="192" width="120" height="40"/>
      <text class="boxTextBlue" x="275" y="216" text-anchor="middle">角色识别</text>
      <rect class="boxYellow" x="355" y="192" width="140" height="40"/>
      <text class="boxTextYellow" x="425" y="216" text-anchor="middle">角色列表</text>

      <rect class="boxBlue" x="215" y="242" width="120" height="40"/>
      <text class="boxTextBlue" x="275" y="266" text-anchor="middle">术语梳理</text>
      <rect class="boxYellow" x="355" y="242" width="140" height="40"/>
      <text class="boxTextYellow" x="425" y="266" text-anchor="middle">术语表</text>

      <rect class="boxBlue" x="215" y="292" width="120" height="40"/>
      <text class="boxTextBlue" x="275" y="316" text-anchor="middle">场景梳理</text>
      <rect class="boxYellow" x="355" y="292" width="140" height="40"/>
      <text class="boxTextYellow" x="425" y="316" text-anchor="middle">场景表</text>

      <rect class="boxBlue" x="215" y="342" width="120" height="40"/>
      <text class="boxTextBlue" x="275" y="366" text-anchor="middle">Q&amp;A 识别</text>
      <rect class="boxYellow" x="355" y="342" width="140" height="40"/>
      <text class="boxTextYellow" x="425" y="366" text-anchor="middle">Q&amp;A 表</text>

      <rect class="boxBlue" x="215" y="392" width="120" height="40"/>
      <text class="boxTextBlue" x="275" y="416" text-anchor="middle">功能列表</text>
      <rect class="boxYellow" x="355" y="392" width="140" height="40"/>
      <text class="boxTextYellow" x="425" y="416" text-anchor="middle">功能清单</text>

      <path class="arrowBlue" marker-end="url(#arrowHeadBlue)" d="M 505 412 L 662 412"/>
      <rect class="outBox" x="670" y="392" width="170" height="40"/>
      <text class="outText" x="755" y="418" text-anchor="middle">优化后需求</text>
    </g>
  </g>

  <g transform="translate(0, 740)">
    <rect class="stageCard" x="30" y="0" width="680" height="300" rx="16"/>
    <text class="stageTitle" x="60" y="44">确认与验证</text>
    <g transform="translate(-480, 0)">
      <rect class="boxBlue" x="560" y="92" width="120" height="40"/>
      <text class="boxTextBlue" x="620" y="116" text-anchor="middle">数据模型</text>
      <rect class="boxYellow" x="695" y="92" width="105" height="40"/>
      <text class="boxTextYellow" x="747.5" y="116" text-anchor="middle">数据模型</text>

      <rect class="boxBlue" x="560" y="142" width="120" height="40"/>
      <text class="boxTextBlue" x="620" y="166" text-anchor="middle">UI 分析</text>
      <rect class="boxYellow" x="695" y="142" width="105" height="40"/>
      <text class="boxTextYellow" x="747.5" y="166" text-anchor="middle">UI 图</text>

      <rect class="boxBlue" x="560" y="192" width="120" height="40"/>
      <text class="boxTextBlue" x="620" y="216" text-anchor="middle">组织时序线</text>
      <rect class="boxYellow" x="695" y="192" width="105" height="40"/>
      <text class="boxTextYellow" x="747.5" y="216" text-anchor="middle">故事线</text>

      <path class="arrowBlue" marker-end="url(#arrowHeadBlue)" d="M 810 162 L 1012 162"/>
      <rect class="outBox" x="1020" y="142" width="170" height="40"/>
      <text class="outText" x="1105" y="168" text-anchor="middle">UI + 故事线</text>
    </g>
  </g>

  <g transform="translate(0, 1080)">
    <rect class="stageCard" x="30" y="0" width="680" height="600" rx="16"/>
    <text class="stageTitle" x="60" y="44">详细分析</text>
    <g transform="translate(-780, 0)">
      <rect class="boxBlue" x="860" y="92" width="100" height="40"/>
      <text class="boxTextBlue" x="910" y="116" text-anchor="middle">细节分析</text>
      <rect class="boxYellow" x="968" y="92" width="100" height="40"/>
      <text class="boxTextYellow" x="1018" y="116" text-anchor="middle">需求细节</text>
      <rect class="boxBlue" x="1090" y="92" width="100" height="40"/>
      <text class="boxTextBlue" x="1140" y="116" text-anchor="middle">编号规则</text>
      <rect class="boxYellow" x="1198" y="92" width="100" height="40"/>
      <text class="boxTextYellow" x="1248" y="116" text-anchor="middle">编号规则</text>

      <rect class="boxBlue" x="860" y="142" width="100" height="40"/>
      <text class="boxTextBlue" x="910" y="166" text-anchor="middle">流程图</text>
      <rect class="boxYellow" x="968" y="142" width="100" height="40"/>
      <text class="boxTextYellow" x="1018" y="166" text-anchor="middle">流程图</text>
      <rect class="boxBlue" x="1090" y="142" width="100" height="40"/>
      <text class="boxTextBlue" x="1140" y="166" text-anchor="middle">数学公式</text>
      <rect class="boxYellow" x="1198" y="142" width="100" height="40"/>
      <text class="boxTextYellow" x="1248" y="166" text-anchor="middle">数学公式</text>

      <rect class="boxBlue" x="860" y="192" width="100" height="40"/>
      <text class="boxTextBlue" x="910" y="216" text-anchor="middle">状态树</text>
      <rect class="boxYellow" x="968" y="192" width="100" height="40"/>
      <text class="boxTextYellow" x="1018" y="216" text-anchor="middle">状态树</text>
      <rect class="boxBlue" x="1090" y="192" width="100" height="40"/>
      <text class="boxTextBlue" x="1140" y="216" text-anchor="middle">角色权限</text>
      <rect class="boxYellow" x="1198" y="192" width="100" height="40"/>
      <text class="boxTextYellow" x="1248" y="216" text-anchor="middle">角色权限</text>

      <rect class="boxBlue" x="860" y="242" width="100" height="40"/>
      <text class="boxTextBlue" x="910" y="266" text-anchor="middle">决策矩阵</text>
      <rect class="boxYellow" x="968" y="242" width="100" height="40"/>
      <text class="boxTextYellow" x="1018" y="266" text-anchor="middle">决策矩阵</text>
      <rect class="boxBlue" x="1090" y="242" width="100" height="40"/>
      <text class="boxTextBlue" x="1140" y="266" text-anchor="middle">数据权限</text>
      <rect class="boxYellow" x="1198" y="242" width="100" height="40"/>
      <text class="boxTextYellow" x="1248" y="266" text-anchor="middle">数据权限</text>

      <rect class="boxBlue" x="860" y="292" width="100" height="40"/>
      <text class="boxTextBlue" x="910" y="316" text-anchor="middle">判定矩阵</text>
      <rect class="boxYellow" x="968" y="292" width="100" height="40"/>
      <text class="boxTextYellow" x="1018" y="316" text-anchor="middle">判定矩阵</text>
      <rect class="boxBlue" x="1090" y="292" width="100" height="40"/>
      <text class="boxTextBlue" x="1140" y="316" text-anchor="middle">后台逻辑</text>
      <rect class="boxYellow" x="1198" y="292" width="100" height="40"/>
      <text class="boxTextYellow" x="1248" y="316" text-anchor="middle">后台逻辑</text>

      <rect class="boxBlue" x="860" y="342" width="100" height="40"/>
      <text class="boxTextBlue" x="910" y="366" text-anchor="middle">时间轴</text>
      <rect class="boxYellow" x="968" y="342" width="100" height="40"/>
      <text class="boxTextYellow" x="1018" y="366" text-anchor="middle">时间轴</text>
      <rect class="boxBlue" x="1090" y="342" width="100" height="40"/>
      <text class="boxTextBlue" x="1140" y="366" text-anchor="middle">表达式树</text>
      <rect class="boxYellow" x="1198" y="342" width="100" height="40"/>
      <text class="boxTextYellow" x="1248" y="366" text-anchor="middle">表达式树</text>

      <rect class="boxBlue" x="860" y="392" width="100" height="40"/>
      <text class="boxTextBlue" x="910" y="416" text-anchor="middle">文件</text>
      <rect class="boxYellow" x="968" y="392" width="100" height="40"/>
      <text class="boxTextYellow" x="1018" y="410" text-anchor="middle">文件导入</text>
      <text class="boxTextYellow" x="1018" y="428" text-anchor="middle">文件导出</text>
      <rect class="boxBlue" x="1090" y="392" width="100" height="40"/>
      <text class="boxTextBlue" x="1140" y="416" text-anchor="middle">定时任务</text>
      <rect class="boxYellow" x="1198" y="392" width="100" height="40"/>
      <text class="boxTextYellow" x="1248" y="416" text-anchor="middle">定时任务</text>

      <rect class="boxBlue" x="1090" y="442" width="100" height="40"/>
      <text class="boxTextBlue" x="1140" y="466" text-anchor="middle">消息队列</text>
      <rect class="boxYellow" x="1198" y="442" width="100" height="40"/>
      <text class="boxTextYellow" x="1248" y="466" text-anchor="middle">消息队列</text>

      <rect class="boxBlue" x="860" y="442" width="100" height="40"/>
      <text class="boxTextBlue" x="910" y="466" text-anchor="middle">缓存</text>
      <rect class="boxYellow" x="968" y="442" width="100" height="40"/>
      <text class="boxTextYellow" x="1018" y="466" text-anchor="middle">缓存</text>

      <path class="arrowBlue" marker-end="url(#arrowHeadBlue)" d="M 1310 262 L 1312 262"/>
      <rect class="outBox" x="1320" y="242" width="170" height="40"/>
      <text class="outText" x="1405" y="268" text-anchor="middle">新版 PRD</text>
    </g>
  </g>

  <g transform="translate(0, 1720)">
    <rect class="stageCard" x="30" y="0" width="680" height="220" rx="16"/>
    <text class="stageTitle" x="60" y="44">需求评审</text>
    <g transform="translate(-1280, 0)">
      <rect class="boxBlue" x="1340" y="92" width="110" height="40"/>
      <text class="boxTextBlue" x="1395" y="116" text-anchor="middle">问题扫描</text>
      <rect class="boxYellow" x="1470" y="92" width="110" height="40"/>
      <text class="boxTextYellow" x="1525" y="116" text-anchor="middle">问题管理列表</text>
      <path class="arrowBlue" marker-end="url(#arrowHeadBlue)" d="M 1590 112 L 1812 112"/>
      <rect class="outBox" x="1820" y="92" width="170" height="40"/>
      <text class="outText" x="1905" y="118" text-anchor="middle">更新 PRD</text>
    </g>
  </g>

  <g transform="translate(0, 1980)">
    <rect class="stageCard" x="30" y="0" width="680" height="220" rx="16"/>
    <text class="stageTitle" x="60" y="44">需求澄清</text>
    <g transform="translate(-1560, 0)">
      <rect class="boxBlue" x="1620" y="92" width="110" height="40"/>
      <text class="boxTextBlue" x="1675" y="116" text-anchor="middle">故事线演示</text>
      <rect class="boxYellow" x="1750" y="92" width="110" height="40"/>
      <text class="boxTextYellow" x="1805" y="116" text-anchor="middle">问题管理表</text>
      <path class="arrowBlue" marker-end="url(#arrowHeadBlue)" d="M 1870 112 L 2092 112"/>
      <rect class="outBox" x="2100" y="92" width="170" height="40"/>
      <text class="outText" x="2185" y="118" text-anchor="middle">反馈</text>
    </g>
  </g>

  <g transform="translate(0, 2240)">
    <rect class="stageCard" x="30" y="0" width="680" height="300" rx="16"/>
    <text class="stageTitle" x="60" y="44">需求计划</text>
    <g transform="translate(-1840, 0)">
      <rect class="boxBlue" x="1900" y="92" width="110" height="40"/>
      <text class="boxTextBlue" x="1955" y="116" text-anchor="middle">需求拆分</text>
      <rect class="boxYellow" x="2030" y="92" width="110" height="40"/>
      <text class="boxTextYellow" x="2085" y="116" text-anchor="middle">子功能列表</text>

      <rect class="boxBlue" x="1900" y="142" width="110" height="40"/>
      <text class="boxTextBlue" x="1955" y="166" text-anchor="middle">需求估算</text>
      <rect class="boxYellow" x="2030" y="142" width="110" height="40"/>
      <text class="boxTextYellow" x="2085" y="166" text-anchor="middle">需求估算表</text>

      <rect class="boxBlue" x="1900" y="192" width="110" height="40"/>
      <text class="boxTextBlue" x="1955" y="216" text-anchor="middle">需求排期</text>
      <rect class="boxYellow" x="2030" y="192" width="110" height="40"/>
      <text class="boxTextYellow" x="2085" y="216" text-anchor="middle">用户故事地图</text>

      <path class="arrowBlue" marker-end="url(#arrowHeadBlue)" d="M 2148 162 L 2372 162"/>
      <rect class="outBox" x="2380" y="142" width="170" height="40"/>
      <text class="outText" x="2465" y="168" text-anchor="middle">开发计划</text>
    </g>
  </g>

  <g transform="translate(0, 2580)">
    <rect class="stageCard" x="30" y="0" width="680" height="340" rx="16"/>
    <text class="stageTitle" x="60" y="44">需求开发</text>
    <g transform="translate(-2120, 0)">
      <rect class="boxBlue" x="2180" y="92" width="110" height="40"/>
      <text class="boxTextBlue" x="2235" y="116" text-anchor="middle">需求变更</text>
      <rect class="boxYellow" x="2310" y="92" width="110" height="40"/>
      <text class="boxTextYellow" x="2365" y="116" text-anchor="middle">影响性分析</text>

      <rect class="boxBlue" x="2180" y="142" width="110" height="40"/>
      <text class="boxTextBlue" x="2235" y="166" text-anchor="middle">变更管理</text>
      <rect class="boxYellow" x="2310" y="142" width="110" height="40"/>
      <text class="boxTextYellow" x="2365" y="166" text-anchor="middle">PRD更新</text>

      <rect class="boxBlue" x="2180" y="192" width="110" height="40"/>
      <text class="boxTextBlue" x="2235" y="216" text-anchor="middle">VibeCoding</text>
      <rect class="boxYellow" x="2310" y="192" width="110" height="40"/>
      <text class="boxTextYellow" x="2365" y="216" text-anchor="middle">实现编码</text>

      <rect class="boxBlue" x="2180" y="242" width="110" height="40"/>
      <text class="boxTextBlue" x="2235" y="266" text-anchor="middle">单元测试</text>
      <rect class="boxYellow" x="2310" y="242" width="110" height="40"/>
      <text class="boxTextYellow" x="2365" y="266" text-anchor="middle">自动化</text>

      <path class="arrowBlue" marker-end="url(#arrowHeadBlue)" d="M 2428 212 L 2652 212"/>
      <rect class="outBox" x="2660" y="192" width="170" height="40"/>
      <text class="outText" x="2745" y="218" text-anchor="middle">实现产物</text>
    </g>
  </g>

  <g transform="translate(0, 2960)">
    <rect class="stageCard" x="30" y="0" width="680" height="260" rx="16"/>
    <text class="stageTitle" x="60" y="44">集成</text>
    <g transform="translate(-2400, 0)">
      <rect class="boxBlue" x="2460" y="92" width="110" height="40"/>
      <text class="boxTextBlue" x="2515" y="116" text-anchor="middle">单元测试</text>
      <rect class="boxYellow" x="2590" y="92" width="110" height="40"/>
      <text class="boxTextYellow" x="2645" y="114" text-anchor="middle">unit_test</text>
      <text class="boxTextYellow" x="2645" y="130" text-anchor="middle">_cases.json</text>

      <rect class="boxBlue" x="2460" y="142" width="110" height="40"/>
      <text class="boxTextBlue" x="2515" y="166" text-anchor="middle">集成测试</text>
      <rect class="boxYellow" x="2590" y="142" width="110" height="40"/>
      <text class="boxTextYellow" x="2645" y="164" text-anchor="middle">integration</text>
      <text class="boxTextYellow" x="2645" y="180" text-anchor="middle">_cases.json</text>

      <path class="arrowBlue" marker-end="url(#arrowHeadBlue)" d="M 2710 162 L 2932 162"/>
      <rect class="outBox" x="2940" y="142" width="170" height="40"/>
      <text class="outText" x="3025" y="168" text-anchor="middle">集成结果</text>
    </g>
  </g>

  <g transform="translate(0, 3260)">
    <rect class="stageCard" x="30" y="0" width="680" height="220" rx="16"/>
    <text class="stageTitle" x="60" y="44">需求验收</text>
    <g transform="translate(-2680, 0)">
      <rect class="boxBlue" x="2740" y="92" width="110" height="40"/>
      <text class="boxTextBlue" x="2795" y="116" text-anchor="middle">验收用例</text>
      <rect class="boxYellow" x="2870" y="92" width="110" height="40"/>
      <text class="boxTextYellow" x="2925" y="116" text-anchor="middle">验收用例</text>
      <path class="arrowBlue" marker-end="url(#arrowHeadBlue)" d="M 2990 112 L 3212 112"/>
      <rect class="outBox" x="3220" y="92" width="170" height="40"/>
      <text class="outText" x="3305" y="118" text-anchor="middle">验收用例</text>
    </g>
  </g>
</svg>
